<?xml version="1.0" encoding="utf-8"?>
<svg version="1.1" xmlns:xlink="http://www.w3.org/1999/xlink" width="80px" height="68px" xmlns="http://www.w3.org/2000/svg">
  <defs>
    <linearGradient gradientUnits="userSpaceOnUse" x1="40" y1="-2.08189964939479E-15" x2="40" y2="68" id="LinearGradient9973">
      <stop id="Stop9974" stop-color="#5eff5a" offset="0" />
      <stop id="Stop9975" stop-color="#5affe1" offset="1" />
    </linearGradient>
  </defs>
  <g transform="matrix(1 0 0 1 -205 -63 )">
    <path d="M 18.5720672607422 60.5518662581712  C 18.5720672607422 60.5518662581712  11.5007266998291 67.5716861285633  11.5007266998291 67.5716861285633  C 4.3886022567749 60.403487826722  0 50.56479207174  0 39.7085554936657  C 0 17.7781252446868  17.9086093902588 0  40 0  C 62.0913887023926 0  80 17.7781252446868  80 39.7085554936657  C 80 50.7826563854479  75.4334869384766 60.7979619333832  68.0678176879883 68  C 68.0678176879883 68  60.9964752197266 60.9801801296079  60.9964752197266 60.9801801296079  C 66.5526275634766 55.5748381683731  70 48.0413514209184  70 39.7085554936657  C 70 23.2607332802944  56.5685424804688 9.92713887341642  40 9.92713887341642  C 23.4314575195313 9.92713887341642  10 23.2607332802944  10 39.7085554936657  C 10 47.8234871072105  13.2694606781006 55.1803602748089  18.5720672607422 60.5518662581712  Z " fill-rule="nonzero" fill="url(#LinearGradient9973)" stroke="none" transform="matrix(1 0 0 1 205 63 )" />
  </g>
</svg>